# xmcd
#
# Track frame offsets:
#	150
#	23161
#	43771
#	68931
#	90027
#	107081
#	131203
#	155318
#	179153
#	200239
#	221615
#	238635
#	254875
#	279338
#
# Disc length: 3996 seconds
#
# Revision: 0
# Processed by: cddbd v1.5.2PL0 Copyright (c) Steve Scherf et al.
# Submitted via: EasyCDDAExtractor 15.3.0.1
#
DISCID=d30f9a0e
DTITLE=いとうかなこ - "Thank You!" ITO KANAKO the BEST -Nitroplus Songs Collection-
DYEAR=2011
DGENRE=
TTITLE0=いとうかなこ - 青い記憶
TTITLE1=いとうかなこ - RISE ON GREEN WINGS
TTITLE2=いとうかなこ - ANGEL'S LADDER
TTITLE3=いとうかなこ - Shadow in the dark
TTITLE4=いとうかなこ - 天意悠久
TTITLE5=いとうかなこ - 涙尽鈴音響
TTITLE6=いとうかなこ - ガラスのくつ
TTITLE7=いとうかなこ - 沙耶の唄
TTITLE8=いとうかなこ - とある竜の恋の歌
TTITLE9=いとうかなこ - Lamento
TTITLE10=いとうかなこ - 賛えし闘いの詩
TTITLE11=いとうかなこ - I Bless Thy Life
TTITLE12=いとうかなこ - 結晶
TTITLE13=縺・→縺・°縺ｪ縺・ - 煌星
EXTD=
EXTT0=
EXTT1=
EXTT2=
EXTT3=
EXTT4=
EXTT5=
EXTT6=
EXTT7=
EXTT8=
EXTT9=
EXTT10=
EXTT11=
EXTT12=
EXTT13=
PLAYORDER=
